<svg width="28" height="29" viewBox="0 0 28 29" fill="none" xmlns="http://www.w3.org/2000/svg">
<g filter="url(#filter0_d_401_343)">
<path d="M23.6875 10.5C23.6875 15.8516 19.3125 20.1875 14 20.1875C8.64844 20.1875 4.3125 15.8516 4.3125 10.5C4.3125 5.1875 8.64844 0.8125 14 0.8125C19.3125 0.8125 23.6875 5.1875 23.6875 10.5ZM14.2344 4.01562C12.125 4.01562 10.7578 4.91406 9.70312 6.51562C9.54688 6.75 9.58594 7.02344 9.78125 7.17969L11.1484 8.19531C11.3438 8.35156 11.6562 8.3125 11.8125 8.11719C12.5156 7.21875 12.9844 6.71094 14.0391 6.71094C14.8203 6.71094 15.8359 7.21875 15.8359 8C15.8359 8.58594 15.3281 8.89844 14.5469 9.32812C13.6484 9.83594 12.4375 10.4609 12.4375 12.0625V12.2188C12.4375 12.4922 12.6328 12.6875 12.9062 12.6875H15.0938C15.3281 12.6875 15.5625 12.4922 15.5625 12.2188V12.1797C15.5625 11.0859 18.8047 11.0469 18.8047 8C18.8047 5.73438 16.4609 4.01562 14.2344 4.01562ZM14 13.7031C12.9844 13.7031 12.2031 14.5234 12.2031 15.5C12.2031 16.5156 12.9844 17.2969 14 17.2969C14.9766 17.2969 15.7969 16.5156 15.7969 15.5C15.7969 14.5234 14.9766 13.7031 14 13.7031Z" fill="white"/>
<path d="M9.70312 6.51562L10.1192 6.79298L10.1207 6.79062L9.70312 6.51562ZM9.78125 7.17969L9.4689 7.57012L9.4759 7.57572L9.48309 7.58106L9.78125 7.17969ZM11.1484 8.19531L11.4608 7.80488L11.4538 7.79928L11.4466 7.79394L11.1484 8.19531ZM11.8125 8.11719L12.203 8.42955L12.2063 8.42534L11.8125 8.11719ZM14.5469 9.32812L14.3059 8.88999L14.3008 8.89284L14.5469 9.32812ZM23.1875 10.5C23.1875 15.5741 19.0377 19.6875 14 19.6875V20.6875C19.5873 20.6875 24.1875 16.129 24.1875 10.5H23.1875ZM14 19.6875C8.92458 19.6875 4.8125 15.5754 4.8125 10.5H3.8125C3.8125 16.1277 8.3723 20.6875 14 20.6875V19.6875ZM4.8125 10.5C4.8125 5.46233 8.92589 1.3125 14 1.3125V0.3125C8.37098 0.3125 3.8125 4.91267 3.8125 10.5H4.8125ZM14 1.3125C19.0364 1.3125 23.1875 5.46364 23.1875 10.5H24.1875C24.1875 4.91136 19.5886 0.3125 14 0.3125V1.3125ZM14.2344 3.51562C13.1054 3.51562 12.1476 3.75706 11.3236 4.2318C10.5022 4.70509 9.84383 5.39286 9.28554 6.24063L10.1207 6.79062C10.6171 6.03683 11.1697 5.47459 11.8229 5.09828C12.4735 4.72341 13.254 4.51562 14.2344 4.51562V3.51562ZM9.2871 6.23827C9.00211 6.66576 9.05046 7.23536 9.4689 7.57012L10.0936 6.78925C10.0944 6.7899 10.0977 6.79296 10.101 6.79883C10.1042 6.80459 10.1059 6.81039 10.1065 6.81494C10.1071 6.81942 10.1063 6.82052 10.107 6.81756C10.1078 6.81461 10.1104 6.80607 10.1192 6.79298L9.2871 6.23827ZM9.48309 7.58106L10.8503 8.59668L11.4466 7.79394L10.0794 6.77832L9.48309 7.58106ZM10.8361 8.58575C11.2535 8.91965 11.8794 8.83399 12.2029 8.42954L11.4221 7.80484C11.4289 7.79627 11.4349 7.79261 11.4368 7.79163C11.4383 7.79081 11.4377 7.79139 11.4355 7.79165C11.4334 7.79191 11.4338 7.79137 11.4374 7.79231C11.4415 7.79337 11.4504 7.7966 11.4608 7.80488L10.8361 8.58575ZM12.2063 8.42534C12.5624 7.97031 12.8143 7.67596 13.0834 7.48481C13.3278 7.31127 13.6053 7.21094 14.0391 7.21094V6.21094C13.4182 6.21094 12.9339 6.36451 12.5044 6.66948C12.0998 6.95685 11.7658 7.36563 11.4187 7.80903L12.2063 8.42534ZM14.0391 7.21094C14.3346 7.21094 14.6904 7.31077 14.9613 7.48385C15.237 7.65999 15.3359 7.84743 15.3359 8H16.3359C16.3359 7.37132 15.9271 6.91423 15.4997 6.64115C15.0674 6.36501 14.5248 6.21094 14.0391 6.21094V7.21094ZM15.3359 8C15.3359 8.11661 15.2979 8.21583 15.1472 8.35341C14.9743 8.51134 14.7067 8.6696 14.3059 8.89002L14.7878 9.76623C15.1683 9.55696 15.5453 9.34412 15.8215 9.0919C16.12 8.81932 16.3359 8.46933 16.3359 8H15.3359ZM14.3008 8.89284C13.4488 9.37443 11.9375 10.1303 11.9375 12.0625H12.9375C12.9375 10.7916 13.8481 10.2974 14.7929 9.76341L14.3008 8.89284ZM11.9375 12.0625V12.2188H12.9375V12.0625H11.9375ZM11.9375 12.2188C11.9375 12.7683 12.3567 13.1875 12.9062 13.1875V12.1875C12.8977 12.1875 12.8973 12.1861 12.9025 12.1881C12.9077 12.1902 12.9154 12.1946 12.9229 12.2021C12.9304 12.2096 12.9348 12.2173 12.9369 12.2225C12.9389 12.2277 12.9375 12.2273 12.9375 12.2188H11.9375ZM12.9062 13.1875H15.0938V12.1875H12.9062V13.1875ZM15.0938 13.1875C15.577 13.1875 16.0625 12.7949 16.0625 12.2188H15.0625C15.0625 12.2145 15.0637 12.2079 15.0665 12.2016C15.0691 12.1959 15.0717 12.1931 15.0727 12.1922C15.0735 12.1914 15.0742 12.1909 15.0758 12.1903C15.0774 12.1896 15.0832 12.1875 15.0938 12.1875V13.1875ZM16.0625 12.2188V12.1797H15.0625V12.2188H16.0625ZM16.0625 12.1797C16.0625 12.1794 16.0588 12.1656 16.0934 12.1219C16.1353 12.0692 16.2129 11.9998 16.3487 11.9081C16.4829 11.8176 16.6434 11.725 16.8376 11.6134C17.0262 11.5049 17.2404 11.3818 17.4563 11.2414C17.8886 10.9601 18.3554 10.5921 18.7122 10.0649C19.0742 9.52988 19.3047 8.85786 19.3047 8H18.3047C18.3047 8.66557 18.1299 9.14102 17.884 9.50447C17.6328 9.87565 17.2891 10.1571 16.9109 10.4032C16.7215 10.5264 16.5305 10.6364 16.3391 10.7465C16.1533 10.8533 15.9592 10.9646 15.7894 11.0792C15.4807 11.2875 15.0625 11.6267 15.0625 12.1797H16.0625ZM19.3047 8C19.3047 6.68486 18.6239 5.55711 17.6727 4.77249C16.7235 3.9896 15.4697 3.51562 14.2344 3.51562V4.51562C15.2256 4.51562 16.2569 4.90103 17.0363 5.54392C17.8136 6.18508 18.3047 7.04951 18.3047 8H19.3047ZM14 13.2031C12.7012 13.2031 11.7031 14.2544 11.7031 15.5H12.7031C12.7031 14.7925 13.2676 14.2031 14 14.2031V13.2031ZM11.7031 15.5C11.7031 16.7918 12.7082 17.7969 14 17.7969V16.7969C13.2605 16.7969 12.7031 16.2395 12.7031 15.5H11.7031ZM14 17.7969C15.2456 17.7969 16.2969 16.7988 16.2969 15.5H15.2969C15.2969 16.2324 14.7075 16.7969 14 16.7969V17.7969ZM16.2969 15.5C16.2969 14.2473 15.2527 13.2031 14 13.2031V14.2031C14.7004 14.2031 15.2969 14.7996 15.2969 15.5H16.2969Z" fill="black"/>
</g>
<defs>
<filter id="filter0_d_401_343" x="0.3125" y="0.8125" width="27.375" height="27.375" filterUnits="userSpaceOnUse" color-interpolation-filters="sRGB">
<feFlood flood-opacity="0" result="BackgroundImageFix"/>
<feColorMatrix in="SourceAlpha" type="matrix" values="0 0 0 0 0 0 0 0 0 0 0 0 0 0 0 0 0 0 127 0" result="hardAlpha"/>
<feOffset dy="4"/>
<feGaussianBlur stdDeviation="2"/>
<feComposite in2="hardAlpha" operator="out"/>
<feColorMatrix type="matrix" values="0 0 0 0 0 0 0 0 0 0 0 0 0 0 0 0 0 0 0.25 0"/>
<feBlend mode="normal" in2="BackgroundImageFix" result="effect1_dropShadow_401_343"/>
<feBlend mode="normal" in="SourceGraphic" in2="effect1_dropShadow_401_343" result="shape"/>
</filter>
</defs>
</svg>
