<svg width="8" height="10" viewBox="0 0 8 10" fill="none" xmlns="http://www.w3.org/2000/svg">
<path d="M2.00781 4.66406L3.29688 3.375V9.15625C3.29688 9.42969 3.49219 9.625 3.76562 9.625H4.23438C4.48828 9.625 4.70312 9.42969 4.70312 9.15625V3.375L5.97266 4.66406C6.14844 4.83984 6.46094 4.83984 6.63672 4.66406L6.96875 4.33203C7.14453 4.15625 7.14453 3.84375 6.96875 3.66797L4.3125 1.03125C4.13672 0.835938 3.84375 0.835938 3.66797 1.03125L1.01172 3.66797C0.835938 3.84375 0.835938 4.15625 1.01172 4.33203L1.34375 4.66406C1.51953 4.83984 1.83203 4.83984 2.00781 4.66406Z" fill="#444647"/>
</svg>
